<svg xmlns="http://www.w3.org/2000/svg" xmlns:xlink="http://www.w3.org/1999/xlink" width="80" height="80" viewBox="0 0 80 80" fill="none">
<rect  x="0" y="0" width="80" height="80" rx="40"    fill="#DADDE4" >
</rect>
<path d="M45.5838 45.0354L45.5999 44.2533C49.317 41.657 51.1231 37.0771 51.1231 30.296C51.1231 23.7568 47.0351 19.8542 40.1814 19.8542L39.8106 19.8542C32.9649 19.8542 28.8688 23.7568 28.8688 30.296C28.8688 37.0448 30.6911 41.6247 34.4405 44.2372L34.4405 45.0274C28.1996 45.8659 21.9426 48.3494 21.9426 52.1471C21.9426 57.4607 28.0141 60.1538 39.996 60.1538C51.9779 60.1538 58.0494 57.4607 58.0494 52.1471C58.0494 48.3575 51.8085 45.874 45.5838 45.0354Z"   fill="#FFFFFF" >
</path>
</svg>
